<svg xmlns="http://www.w3.org/2000/svg" xmlns:xlink="http://www.w3.org/1999/xlink" width="200" zoomAndPan="magnify" viewBox="0 0 150 56.249996" height="75" preserveAspectRatio="xMidYMid meet" version="1.0"><defs><g/><clipPath id="b52d5375e0"><path d="M 3.714844 1.097656 L 57.027344 1.097656 L 57.027344 54.410156 L 3.714844 54.410156 Z M 3.714844 1.097656 " clip-rule="nonzero"/></clipPath><clipPath id="f45bfb6de1"><path d="M 20.738281 1.097656 L 40.003906 1.097656 C 49.40625 1.097656 57.027344 8.71875 57.027344 18.121094 L 57.027344 37.386719 C 57.027344 46.789062 49.40625 54.410156 40.003906 54.410156 L 20.738281 54.410156 C 11.335938 54.410156 3.714844 46.789062 3.714844 37.386719 L 3.714844 18.121094 C 3.714844 8.71875 11.335938 1.097656 20.738281 1.097656 Z M 20.738281 1.097656 " clip-rule="nonzero"/></clipPath><linearGradient x1="-0.000000508055" gradientTransform="matrix(0.208253, 0, 0, 0.208253, 3.715618, 1.098529)" y1="0" x2="256.000005" gradientUnits="userSpaceOnUse" y2="0" id="4f3a9ffe79"><stop stop-opacity="1" stop-color="rgb(100%, 34.098816%, 34.098816%)" offset="0"/><stop stop-opacity="1" stop-color="rgb(99.822998%, 34.091187%, 34.356689%)" offset="0.00390625"/><stop stop-opacity="1" stop-color="rgb(99.647522%, 34.085083%, 34.614563%)" offset="0.0078125"/><stop stop-opacity="1" stop-color="rgb(99.47052%, 34.077454%, 34.870911%)" offset="0.0117188"/><stop stop-opacity="1" stop-color="rgb(99.295044%, 34.069824%, 35.128784%)" offset="0.015625"/><stop stop-opacity="1" stop-color="rgb(99.118042%, 34.062195%, 35.385132%)" offset="0.0195312"/><stop stop-opacity="1" stop-color="rgb(98.942566%, 34.054565%, 35.643005%)" offset="0.0234375"/><stop stop-opacity="1" stop-color="rgb(98.765564%, 34.046936%, 35.900879%)" offset="0.0273438"/><stop stop-opacity="1" stop-color="rgb(98.590088%, 34.039307%, 36.158752%)" offset="0.03125"/><stop stop-opacity="1" stop-color="rgb(98.413086%, 34.031677%, 36.4151%)" offset="0.0351563"/><stop stop-opacity="1" stop-color="rgb(98.23761%, 34.025574%, 36.672974%)" offset="0.0390625"/><stop stop-opacity="1" stop-color="rgb(98.060608%, 34.017944%, 36.930847%)" offset="0.0429688"/><stop stop-opacity="1" stop-color="rgb(97.885132%, 34.010315%, 37.188721%)" offset="0.046875"/><stop stop-opacity="1" stop-color="rgb(97.70813%, 34.002686%, 37.445068%)" offset="0.0507812"/><stop stop-opacity="1" stop-color="rgb(97.532654%, 33.995056%, 37.702942%)" offset="0.0546875"/><stop stop-opacity="1" stop-color="rgb(97.355652%, 33.987427%, 37.960815%)" offset="0.0585938"/><stop stop-opacity="1" stop-color="rgb(97.180176%, 33.979797%, 38.218689%)" offset="0.0625"/><stop stop-opacity="1" stop-color="rgb(97.003174%, 33.972168%, 38.475037%)" offset="0.0664063"/><stop stop-opacity="1" stop-color="rgb(96.827698%, 33.966064%, 38.73291%)" offset="0.0703125"/><stop stop-opacity="1" stop-color="rgb(96.650696%, 33.958435%, 38.989258%)" offset="0.0742188"/><stop stop-opacity="1" stop-color="rgb(96.47522%, 33.950806%, 39.247131%)" offset="0.078125"/><stop stop-opacity="1" stop-color="rgb(96.298218%, 33.943176%, 39.505005%)" offset="0.0820313"/><stop stop-opacity="1" stop-color="rgb(96.122742%, 33.935547%, 39.762878%)" offset="0.0859375"/><stop stop-opacity="1" stop-color="rgb(95.947266%, 33.927917%, 40.019226%)" offset="0.0898438"/><stop stop-opacity="1" stop-color="rgb(95.77179%, 33.921814%, 40.2771%)" offset="0.09375"/><stop stop-opacity="1" stop-color="rgb(95.594788%, 33.914185%, 40.534973%)" offset="0.0976563"/><stop stop-opacity="1" stop-color="rgb(95.419312%, 33.906555%, 40.792847%)" offset="0.101563"/><stop stop-opacity="1" stop-color="rgb(95.24231%, 33.898926%, 41.049194%)" offset="0.105469"/><stop stop-opacity="1" stop-color="rgb(95.066833%, 33.891296%, 41.307068%)" offset="0.109375"/><stop stop-opacity="1" stop-color="rgb(94.889832%, 33.883667%, 41.563416%)" offset="0.113281"/><stop stop-opacity="1" stop-color="rgb(94.714355%, 33.876038%, 41.821289%)" offset="0.117188"/><stop stop-opacity="1" stop-color="rgb(94.537354%, 33.868408%, 42.079163%)" offset="0.121094"/><stop stop-opacity="1" stop-color="rgb(94.361877%, 33.862305%, 42.337036%)" offset="0.125"/><stop stop-opacity="1" stop-color="rgb(94.184875%, 33.854675%, 42.593384%)" offset="0.128906"/><stop stop-opacity="1" stop-color="rgb(94.009399%, 33.847046%, 42.851257%)" offset="0.132813"/><stop stop-opacity="1" stop-color="rgb(93.832397%, 33.839417%, 43.109131%)" offset="0.136719"/><stop stop-opacity="1" stop-color="rgb(93.656921%, 33.831787%, 43.367004%)" offset="0.140625"/><stop stop-opacity="1" stop-color="rgb(93.479919%, 33.824158%, 43.623352%)" offset="0.144531"/><stop stop-opacity="1" stop-color="rgb(93.304443%, 33.816528%, 43.881226%)" offset="0.148438"/><stop stop-opacity="1" stop-color="rgb(93.127441%, 33.808899%, 44.137573%)" offset="0.152344"/><stop stop-opacity="1" stop-color="rgb(92.951965%, 33.802795%, 44.395447%)" offset="0.15625"/><stop stop-opacity="1" stop-color="rgb(92.774963%, 33.795166%, 44.65332%)" offset="0.160156"/><stop stop-opacity="1" stop-color="rgb(92.599487%, 33.787537%, 44.911194%)" offset="0.164063"/><stop stop-opacity="1" stop-color="rgb(92.422485%, 33.779907%, 45.167542%)" offset="0.167969"/><stop stop-opacity="1" stop-color="rgb(92.247009%, 33.772278%, 45.425415%)" offset="0.171875"/><stop stop-opacity="1" stop-color="rgb(92.071533%, 33.764648%, 45.683289%)" offset="0.175781"/><stop stop-opacity="1" stop-color="rgb(91.896057%, 33.758545%, 45.941162%)" offset="0.179688"/><stop stop-opacity="1" stop-color="rgb(91.719055%, 33.750916%, 46.19751%)" offset="0.183594"/><stop stop-opacity="1" stop-color="rgb(91.543579%, 33.743286%, 46.455383%)" offset="0.1875"/><stop stop-opacity="1" stop-color="rgb(91.366577%, 33.735657%, 46.711731%)" offset="0.191406"/><stop stop-opacity="1" stop-color="rgb(91.191101%, 33.728027%, 46.969604%)" offset="0.195313"/><stop stop-opacity="1" stop-color="rgb(91.014099%, 33.720398%, 47.227478%)" offset="0.199219"/><stop stop-opacity="1" stop-color="rgb(90.838623%, 33.712769%, 47.485352%)" offset="0.203125"/><stop stop-opacity="1" stop-color="rgb(90.661621%, 33.705139%, 47.741699%)" offset="0.207031"/><stop stop-opacity="1" stop-color="rgb(90.486145%, 33.699036%, 47.999573%)" offset="0.210938"/><stop stop-opacity="1" stop-color="rgb(90.309143%, 33.691406%, 48.257446%)" offset="0.214844"/><stop stop-opacity="1" stop-color="rgb(90.133667%, 33.683777%, 48.51532%)" offset="0.21875"/><stop stop-opacity="1" stop-color="rgb(89.956665%, 33.676147%, 48.771667%)" offset="0.222656"/><stop stop-opacity="1" stop-color="rgb(89.781189%, 33.668518%, 49.029541%)" offset="0.226563"/><stop stop-opacity="1" stop-color="rgb(89.604187%, 33.660889%, 49.287415%)" offset="0.230469"/><stop stop-opacity="1" stop-color="rgb(89.428711%, 33.653259%, 49.545288%)" offset="0.234375"/><stop stop-opacity="1" stop-color="rgb(89.251709%, 33.64563%, 49.801636%)" offset="0.238281"/><stop stop-opacity="1" stop-color="rgb(89.076233%, 33.639526%, 50.059509%)" offset="0.242188"/><stop stop-opacity="1" stop-color="rgb(88.899231%, 33.631897%, 50.315857%)" offset="0.246094"/><stop stop-opacity="1" stop-color="rgb(88.723755%, 33.624268%, 50.57373%)" offset="0.25"/><stop stop-opacity="1" stop-color="rgb(88.546753%, 33.616638%, 50.831604%)" offset="0.253906"/><stop stop-opacity="1" stop-color="rgb(88.371277%, 33.609009%, 51.089478%)" offset="0.257813"/><stop stop-opacity="1" stop-color="rgb(88.194275%, 33.601379%, 51.345825%)" offset="0.261719"/><stop stop-opacity="1" stop-color="rgb(88.018799%, 33.595276%, 51.603699%)" offset="0.265625"/><stop stop-opacity="1" stop-color="rgb(87.843323%, 33.587646%, 51.861572%)" offset="0.269531"/><stop stop-opacity="1" stop-color="rgb(87.667847%, 33.580017%, 52.119446%)" offset="0.273438"/><stop stop-opacity="1" stop-color="rgb(87.490845%, 33.572388%, 52.375793%)" offset="0.277344"/><stop stop-opacity="1" stop-color="rgb(87.315369%, 33.564758%, 52.633667%)" offset="0.28125"/><stop stop-opacity="1" stop-color="rgb(87.138367%, 33.557129%, 52.890015%)" offset="0.285156"/><stop stop-opacity="1" stop-color="rgb(86.962891%, 33.5495%, 53.147888%)" offset="0.289063"/><stop stop-opacity="1" stop-color="rgb(86.785889%, 33.54187%, 53.405762%)" offset="0.292969"/><stop stop-opacity="1" stop-color="rgb(86.610413%, 33.535767%, 53.663635%)" offset="0.296875"/><stop stop-opacity="1" stop-color="rgb(86.433411%, 33.528137%, 53.919983%)" offset="0.300781"/><stop stop-opacity="1" stop-color="rgb(86.257935%, 33.520508%, 54.177856%)" offset="0.304688"/><stop stop-opacity="1" stop-color="rgb(86.080933%, 33.512878%, 54.43573%)" offset="0.308594"/><stop stop-opacity="1" stop-color="rgb(85.905457%, 33.505249%, 54.693604%)" offset="0.3125"/><stop stop-opacity="1" stop-color="rgb(85.728455%, 33.49762%, 54.949951%)" offset="0.316406"/><stop stop-opacity="1" stop-color="rgb(85.552979%, 33.48999%, 55.207825%)" offset="0.320313"/><stop stop-opacity="1" stop-color="rgb(85.375977%, 33.482361%, 55.464172%)" offset="0.324219"/><stop stop-opacity="1" stop-color="rgb(85.2005%, 33.476257%, 55.722046%)" offset="0.328125"/><stop stop-opacity="1" stop-color="rgb(85.023499%, 33.468628%, 55.979919%)" offset="0.332031"/><stop stop-opacity="1" stop-color="rgb(84.848022%, 33.460999%, 56.237793%)" offset="0.335938"/><stop stop-opacity="1" stop-color="rgb(84.671021%, 33.453369%, 56.494141%)" offset="0.339844"/><stop stop-opacity="1" stop-color="rgb(84.495544%, 33.44574%, 56.752014%)" offset="0.34375"/><stop stop-opacity="1" stop-color="rgb(84.318542%, 33.43811%, 57.009888%)" offset="0.347656"/><stop stop-opacity="1" stop-color="rgb(84.143066%, 33.432007%, 57.267761%)" offset="0.351563"/><stop stop-opacity="1" stop-color="rgb(83.96759%, 33.424377%, 57.524109%)" offset="0.355469"/><stop stop-opacity="1" stop-color="rgb(83.792114%, 33.416748%, 57.781982%)" offset="0.359375"/><stop stop-opacity="1" stop-color="rgb(83.615112%, 33.409119%, 58.03833%)" offset="0.363281"/><stop stop-opacity="1" stop-color="rgb(83.439636%, 33.401489%, 58.296204%)" offset="0.367188"/><stop stop-opacity="1" stop-color="rgb(83.262634%, 33.39386%, 58.554077%)" offset="0.371094"/><stop stop-opacity="1" stop-color="rgb(83.087158%, 33.38623%, 58.811951%)" offset="0.375"/><stop stop-opacity="1" stop-color="rgb(82.910156%, 33.378601%, 59.068298%)" offset="0.378906"/><stop stop-opacity="1" stop-color="rgb(82.73468%, 33.372498%, 59.326172%)" offset="0.382812"/><stop stop-opacity="1" stop-color="rgb(82.557678%, 33.364868%, 59.584045%)" offset="0.386719"/><stop stop-opacity="1" stop-color="rgb(82.382202%, 33.357239%, 59.841919%)" offset="0.390625"/><stop stop-opacity="1" stop-color="rgb(82.2052%, 33.349609%, 60.098267%)" offset="0.394531"/><stop stop-opacity="1" stop-color="rgb(82.029724%, 33.34198%, 60.35614%)" offset="0.398438"/><stop stop-opacity="1" stop-color="rgb(81.852722%, 33.334351%, 60.612488%)" offset="0.402344"/><stop stop-opacity="1" stop-color="rgb(81.677246%, 33.326721%, 60.870361%)" offset="0.40625"/><stop stop-opacity="1" stop-color="rgb(81.500244%, 33.319092%, 61.128235%)" offset="0.410156"/><stop stop-opacity="1" stop-color="rgb(81.324768%, 33.312988%, 61.386108%)" offset="0.414062"/><stop stop-opacity="1" stop-color="rgb(81.147766%, 33.305359%, 61.642456%)" offset="0.417969"/><stop stop-opacity="1" stop-color="rgb(80.97229%, 33.297729%, 61.90033%)" offset="0.421875"/><stop stop-opacity="1" stop-color="rgb(80.795288%, 33.2901%, 62.158203%)" offset="0.425781"/><stop stop-opacity="1" stop-color="rgb(80.619812%, 33.282471%, 62.416077%)" offset="0.429688"/><stop stop-opacity="1" stop-color="rgb(80.44281%, 33.274841%, 62.672424%)" offset="0.433594"/><stop stop-opacity="1" stop-color="rgb(80.267334%, 33.268738%, 62.930298%)" offset="0.4375"/><stop stop-opacity="1" stop-color="rgb(80.091858%, 33.261108%, 63.188171%)" offset="0.441406"/><stop stop-opacity="1" stop-color="rgb(79.916382%, 33.253479%, 63.446045%)" offset="0.445313"/><stop stop-opacity="1" stop-color="rgb(79.73938%, 33.24585%, 63.702393%)" offset="0.449219"/><stop stop-opacity="1" stop-color="rgb(79.563904%, 33.23822%, 63.960266%)" offset="0.453125"/><stop stop-opacity="1" stop-color="rgb(79.386902%, 33.230591%, 64.216614%)" offset="0.457031"/><stop stop-opacity="1" stop-color="rgb(79.211426%, 33.222961%, 64.474487%)" offset="0.460938"/><stop stop-opacity="1" stop-color="rgb(79.034424%, 33.215332%, 64.732361%)" offset="0.464844"/><stop stop-opacity="1" stop-color="rgb(78.858948%, 33.209229%, 64.990234%)" offset="0.46875"/><stop stop-opacity="1" stop-color="rgb(78.681946%, 33.201599%, 65.246582%)" offset="0.472656"/><stop stop-opacity="1" stop-color="rgb(78.50647%, 33.19397%, 65.504456%)" offset="0.476563"/><stop stop-opacity="1" stop-color="rgb(78.329468%, 33.18634%, 65.762329%)" offset="0.480469"/><stop stop-opacity="1" stop-color="rgb(78.153992%, 33.178711%, 66.020203%)" offset="0.484375"/><stop stop-opacity="1" stop-color="rgb(77.97699%, 33.171082%, 66.27655%)" offset="0.488281"/><stop stop-opacity="1" stop-color="rgb(77.801514%, 33.163452%, 66.534424%)" offset="0.492188"/><stop stop-opacity="1" stop-color="rgb(77.624512%, 33.155823%, 66.790771%)" offset="0.496094"/><stop stop-opacity="1" stop-color="rgb(77.449036%, 33.149719%, 67.048645%)" offset="0.5"/><stop stop-opacity="1" stop-color="rgb(77.272034%, 33.14209%, 67.306519%)" offset="0.503906"/><stop stop-opacity="1" stop-color="rgb(77.096558%, 33.13446%, 67.564392%)" offset="0.507812"/><stop stop-opacity="1" stop-color="rgb(76.919556%, 33.126831%, 67.82074%)" offset="0.511719"/><stop stop-opacity="1" stop-color="rgb(76.74408%, 33.119202%, 68.078613%)" offset="0.515625"/><stop stop-opacity="1" stop-color="rgb(76.567078%, 33.111572%, 68.336487%)" offset="0.519531"/><stop stop-opacity="1" stop-color="rgb(76.391602%, 33.103943%, 68.59436%)" offset="0.523438"/><stop stop-opacity="1" stop-color="rgb(76.2146%, 33.096313%, 68.850708%)" offset="0.527344"/><stop stop-opacity="1" stop-color="rgb(76.039124%, 33.09021%, 69.108582%)" offset="0.53125"/><stop stop-opacity="1" stop-color="rgb(75.863647%, 33.082581%, 69.364929%)" offset="0.535156"/><stop stop-opacity="1" stop-color="rgb(75.688171%, 33.074951%, 69.622803%)" offset="0.539062"/><stop stop-opacity="1" stop-color="rgb(75.511169%, 33.067322%, 69.880676%)" offset="0.542969"/><stop stop-opacity="1" stop-color="rgb(75.335693%, 33.059692%, 70.13855%)" offset="0.546875"/><stop stop-opacity="1" stop-color="rgb(75.158691%, 33.052063%, 70.394897%)" offset="0.550781"/><stop stop-opacity="1" stop-color="rgb(74.983215%, 33.045959%, 70.652771%)" offset="0.554688"/><stop stop-opacity="1" stop-color="rgb(74.806213%, 33.03833%, 70.910645%)" offset="0.558594"/><stop stop-opacity="1" stop-color="rgb(74.630737%, 33.030701%, 71.168518%)" offset="0.5625"/><stop stop-opacity="1" stop-color="rgb(74.453735%, 33.023071%, 71.424866%)" offset="0.566406"/><stop stop-opacity="1" stop-color="rgb(74.278259%, 33.015442%, 71.682739%)" offset="0.570312"/><stop stop-opacity="1" stop-color="rgb(74.101257%, 33.007812%, 71.939087%)" offset="0.574219"/><stop stop-opacity="1" stop-color="rgb(73.925781%, 33.000183%, 72.19696%)" offset="0.578125"/><stop stop-opacity="1" stop-color="rgb(73.748779%, 32.992554%, 72.454834%)" offset="0.582031"/><stop stop-opacity="1" stop-color="rgb(73.573303%, 32.98645%, 72.712708%)" offset="0.585938"/><stop stop-opacity="1" stop-color="rgb(73.396301%, 32.978821%, 72.969055%)" offset="0.589844"/><stop stop-opacity="1" stop-color="rgb(73.220825%, 32.971191%, 73.226929%)" offset="0.59375"/><stop stop-opacity="1" stop-color="rgb(73.043823%, 32.963562%, 73.484802%)" offset="0.597656"/><stop stop-opacity="1" stop-color="rgb(72.868347%, 32.955933%, 73.742676%)" offset="0.601562"/><stop stop-opacity="1" stop-color="rgb(72.691345%, 32.948303%, 73.999023%)" offset="0.605469"/><stop stop-opacity="1" stop-color="rgb(72.515869%, 32.940674%, 74.256897%)" offset="0.609375"/><stop stop-opacity="1" stop-color="rgb(72.338867%, 32.933044%, 74.514771%)" offset="0.613281"/><stop stop-opacity="1" stop-color="rgb(72.163391%, 32.926941%, 74.772644%)" offset="0.617188"/><stop stop-opacity="1" stop-color="rgb(71.987915%, 32.919312%, 75.028992%)" offset="0.621094"/><stop stop-opacity="1" stop-color="rgb(71.812439%, 32.911682%, 75.286865%)" offset="0.625"/><stop stop-opacity="1" stop-color="rgb(71.635437%, 32.904053%, 75.543213%)" offset="0.628906"/><stop stop-opacity="1" stop-color="rgb(71.459961%, 32.896423%, 75.801086%)" offset="0.632812"/><stop stop-opacity="1" stop-color="rgb(71.282959%, 32.888794%, 76.05896%)" offset="0.636719"/><stop stop-opacity="1" stop-color="rgb(71.107483%, 32.88269%, 76.316833%)" offset="0.640625"/><stop stop-opacity="1" stop-color="rgb(70.930481%, 32.875061%, 76.573181%)" offset="0.644531"/><stop stop-opacity="1" stop-color="rgb(70.755005%, 32.867432%, 76.831055%)" offset="0.648438"/><stop stop-opacity="1" stop-color="rgb(70.578003%, 32.859802%, 77.088928%)" offset="0.652344"/><stop stop-opacity="1" stop-color="rgb(70.402527%, 32.852173%, 77.346802%)" offset="0.65625"/><stop stop-opacity="1" stop-color="rgb(70.225525%, 32.844543%, 77.603149%)" offset="0.660156"/><stop stop-opacity="1" stop-color="rgb(70.050049%, 32.836914%, 77.861023%)" offset="0.664062"/><stop stop-opacity="1" stop-color="rgb(69.873047%, 32.829285%, 78.117371%)" offset="0.667969"/><stop stop-opacity="1" stop-color="rgb(69.697571%, 32.823181%, 78.375244%)" offset="0.671875"/><stop stop-opacity="1" stop-color="rgb(69.520569%, 32.815552%, 78.633118%)" offset="0.675781"/><stop stop-opacity="1" stop-color="rgb(69.345093%, 32.807922%, 78.890991%)" offset="0.679688"/><stop stop-opacity="1" stop-color="rgb(69.168091%, 32.800293%, 79.147339%)" offset="0.683594"/><stop stop-opacity="1" stop-color="rgb(68.992615%, 32.792664%, 79.405212%)" offset="0.6875"/><stop stop-opacity="1" stop-color="rgb(68.815613%, 32.785034%, 79.663086%)" offset="0.691406"/><stop stop-opacity="1" stop-color="rgb(68.640137%, 32.777405%, 79.920959%)" offset="0.695312"/><stop stop-opacity="1" stop-color="rgb(68.463135%, 32.769775%, 80.177307%)" offset="0.699219"/><stop stop-opacity="1" stop-color="rgb(68.287659%, 32.763672%, 80.435181%)" offset="0.703125"/><stop stop-opacity="1" stop-color="rgb(68.112183%, 32.756042%, 80.691528%)" offset="0.707031"/><stop stop-opacity="1" stop-color="rgb(67.936707%, 32.748413%, 80.949402%)" offset="0.710938"/><stop stop-opacity="1" stop-color="rgb(67.759705%, 32.740784%, 81.207275%)" offset="0.714844"/><stop stop-opacity="1" stop-color="rgb(67.584229%, 32.733154%, 81.465149%)" offset="0.71875"/><stop stop-opacity="1" stop-color="rgb(67.407227%, 32.725525%, 81.721497%)" offset="0.722656"/><stop stop-opacity="1" stop-color="rgb(67.23175%, 32.719421%, 81.97937%)" offset="0.726562"/><stop stop-opacity="1" stop-color="rgb(67.054749%, 32.711792%, 82.237244%)" offset="0.730469"/><stop stop-opacity="1" stop-color="rgb(66.879272%, 32.704163%, 82.495117%)" offset="0.734375"/><stop stop-opacity="1" stop-color="rgb(66.702271%, 32.696533%, 82.751465%)" offset="0.738281"/><stop stop-opacity="1" stop-color="rgb(66.526794%, 32.688904%, 83.009338%)" offset="0.742188"/><stop stop-opacity="1" stop-color="rgb(66.349792%, 32.681274%, 83.265686%)" offset="0.746094"/><stop stop-opacity="1" stop-color="rgb(66.174316%, 32.673645%, 83.52356%)" offset="0.75"/><stop stop-opacity="1" stop-color="rgb(65.997314%, 32.666016%, 83.781433%)" offset="0.753906"/><stop stop-opacity="1" stop-color="rgb(65.821838%, 32.659912%, 84.039307%)" offset="0.757812"/><stop stop-opacity="1" stop-color="rgb(65.644836%, 32.652283%, 84.295654%)" offset="0.761719"/><stop stop-opacity="1" stop-color="rgb(65.46936%, 32.644653%, 84.553528%)" offset="0.765625"/><stop stop-opacity="1" stop-color="rgb(65.292358%, 32.637024%, 84.811401%)" offset="0.769531"/><stop stop-opacity="1" stop-color="rgb(65.116882%, 32.629395%, 85.069275%)" offset="0.773438"/><stop stop-opacity="1" stop-color="rgb(64.93988%, 32.621765%, 85.325623%)" offset="0.777344"/><stop stop-opacity="1" stop-color="rgb(64.764404%, 32.614136%, 85.583496%)" offset="0.78125"/><stop stop-opacity="1" stop-color="rgb(64.587402%, 32.606506%, 85.839844%)" offset="0.785156"/><stop stop-opacity="1" stop-color="rgb(64.411926%, 32.600403%, 86.097717%)" offset="0.789062"/><stop stop-opacity="1" stop-color="rgb(64.234924%, 32.592773%, 86.355591%)" offset="0.792969"/><stop stop-opacity="1" stop-color="rgb(64.059448%, 32.585144%, 86.613464%)" offset="0.796875"/><stop stop-opacity="1" stop-color="rgb(63.883972%, 32.577515%, 86.869812%)" offset="0.800781"/><stop stop-opacity="1" stop-color="rgb(63.708496%, 32.569885%, 87.127686%)" offset="0.804688"/><stop stop-opacity="1" stop-color="rgb(63.531494%, 32.562256%, 87.385559%)" offset="0.808594"/><stop stop-opacity="1" stop-color="rgb(63.356018%, 32.556152%, 87.643433%)" offset="0.8125"/><stop stop-opacity="1" stop-color="rgb(63.179016%, 32.548523%, 87.89978%)" offset="0.816406"/><stop stop-opacity="1" stop-color="rgb(63.00354%, 32.540894%, 88.157654%)" offset="0.820312"/><stop stop-opacity="1" stop-color="rgb(62.826538%, 32.533264%, 88.415527%)" offset="0.824219"/><stop stop-opacity="1" stop-color="rgb(62.651062%, 32.525635%, 88.673401%)" offset="0.828125"/><stop stop-opacity="1" stop-color="rgb(62.47406%, 32.518005%, 88.929749%)" offset="0.832031"/><stop stop-opacity="1" stop-color="rgb(62.298584%, 32.510376%, 89.187622%)" offset="0.835937"/><stop stop-opacity="1" stop-color="rgb(62.121582%, 32.502747%, 89.44397%)" offset="0.839844"/><stop stop-opacity="1" stop-color="rgb(61.946106%, 32.496643%, 89.701843%)" offset="0.84375"/><stop stop-opacity="1" stop-color="rgb(61.769104%, 32.489014%, 89.959717%)" offset="0.847656"/><stop stop-opacity="1" stop-color="rgb(61.593628%, 32.481384%, 90.21759%)" offset="0.851562"/><stop stop-opacity="1" stop-color="rgb(61.416626%, 32.473755%, 90.473938%)" offset="0.855469"/><stop stop-opacity="1" stop-color="rgb(61.24115%, 32.466125%, 90.731812%)" offset="0.859375"/><stop stop-opacity="1" stop-color="rgb(61.064148%, 32.458496%, 90.989685%)" offset="0.863281"/><stop stop-opacity="1" stop-color="rgb(60.888672%, 32.450867%, 91.247559%)" offset="0.867187"/><stop stop-opacity="1" stop-color="rgb(60.71167%, 32.443237%, 91.503906%)" offset="0.871094"/><stop stop-opacity="1" stop-color="rgb(60.536194%, 32.437134%, 91.76178%)" offset="0.875"/><stop stop-opacity="1" stop-color="rgb(60.359192%, 32.429504%, 92.018127%)" offset="0.878906"/><stop stop-opacity="1" stop-color="rgb(60.183716%, 32.421875%, 92.276001%)" offset="0.882812"/><stop stop-opacity="1" stop-color="rgb(60.00824%, 32.414246%, 92.533875%)" offset="0.886719"/><stop stop-opacity="1" stop-color="rgb(59.832764%, 32.406616%, 92.791748%)" offset="0.890625"/><stop stop-opacity="1" stop-color="rgb(59.655762%, 32.398987%, 93.048096%)" offset="0.894531"/><stop stop-opacity="1" stop-color="rgb(59.480286%, 32.392883%, 93.305969%)" offset="0.898438"/><stop stop-opacity="1" stop-color="rgb(59.303284%, 32.385254%, 93.563843%)" offset="0.902344"/><stop stop-opacity="1" stop-color="rgb(59.127808%, 32.377625%, 93.821716%)" offset="0.90625"/><stop stop-opacity="1" stop-color="rgb(58.950806%, 32.369995%, 94.078064%)" offset="0.910156"/><stop stop-opacity="1" stop-color="rgb(58.77533%, 32.362366%, 94.335938%)" offset="0.914062"/><stop stop-opacity="1" stop-color="rgb(58.598328%, 32.354736%, 94.592285%)" offset="0.917969"/><stop stop-opacity="1" stop-color="rgb(58.422852%, 32.347107%, 94.850159%)" offset="0.921875"/><stop stop-opacity="1" stop-color="rgb(58.24585%, 32.339478%, 95.108032%)" offset="0.925781"/><stop stop-opacity="1" stop-color="rgb(58.070374%, 32.333374%, 95.365906%)" offset="0.929688"/><stop stop-opacity="1" stop-color="rgb(57.893372%, 32.325745%, 95.622253%)" offset="0.933594"/><stop stop-opacity="1" stop-color="rgb(57.717896%, 32.318115%, 95.880127%)" offset="0.9375"/><stop stop-opacity="1" stop-color="rgb(57.540894%, 32.310486%, 96.138%)" offset="0.941406"/><stop stop-opacity="1" stop-color="rgb(57.365417%, 32.302856%, 96.395874%)" offset="0.945312"/><stop stop-opacity="1" stop-color="rgb(57.188416%, 32.295227%, 96.652222%)" offset="0.949219"/><stop stop-opacity="1" stop-color="rgb(57.012939%, 32.287598%, 96.910095%)" offset="0.953125"/><stop stop-opacity="1" stop-color="rgb(56.835938%, 32.279968%, 97.166443%)" offset="0.957031"/><stop stop-opacity="1" stop-color="rgb(56.660461%, 32.273865%, 97.424316%)" offset="0.960938"/><stop stop-opacity="1" stop-color="rgb(56.483459%, 32.266235%, 97.68219%)" offset="0.964844"/><stop stop-opacity="1" stop-color="rgb(56.307983%, 32.258606%, 97.940063%)" offset="0.96875"/><stop stop-opacity="1" stop-color="rgb(56.130981%, 32.250977%, 98.196411%)" offset="0.972656"/><stop stop-opacity="1" stop-color="rgb(55.955505%, 32.243347%, 98.454285%)" offset="0.976562"/><stop stop-opacity="1" stop-color="rgb(55.780029%, 32.235718%, 98.712158%)" offset="0.980469"/><stop stop-opacity="1" stop-color="rgb(55.604553%, 32.229614%, 98.970032%)" offset="0.984375"/><stop stop-opacity="1" stop-color="rgb(55.427551%, 32.221985%, 99.226379%)" offset="0.988281"/><stop stop-opacity="1" stop-color="rgb(55.252075%, 32.214355%, 99.484253%)" offset="0.992188"/><stop stop-opacity="1" stop-color="rgb(55.075073%, 32.206726%, 99.742126%)" offset="0.996094"/><stop stop-opacity="1" stop-color="rgb(54.899597%, 32.199097%, 100%)" offset="1"/></linearGradient><clipPath id="045e983011"><path d="M 10.980469 16.121094 L 49.71875 16.121094 L 49.71875 39.222656 L 10.980469 39.222656 Z M 10.980469 16.121094 " clip-rule="nonzero"/></clipPath></defs><g clip-path="url(#b52d5375e0)"><g clip-path="url(#f45bfb6de1)"><path fill="url(#4f3a9ffe79)" d="M 3.714844 1.097656 L 3.714844 54.410156 L 57.027344 54.410156 L 57.027344 1.097656 Z M 3.714844 1.097656 " fill-rule="nonzero"/></g></g><g clip-path="url(#045e983011)"><path fill="#ffffff" d="M 13.566406 16.121094 C 12.136719 16.121094 10.980469 17.277344 10.980469 18.707031 L 10.980469 36.800781 C 10.980469 38.230469 12.136719 39.386719 13.566406 39.386719 L 35.539062 39.386719 C 36.96875 39.386719 38.125 38.230469 38.125 36.800781 L 38.125 18.707031 C 38.125 17.277344 36.96875 16.121094 35.539062 16.121094 Z M 48.464844 18.707031 C 48.117188 18.707031 47.816406 18.828125 47.566406 19.070312 L 40.710938 25.167969 L 40.710938 30.339844 L 47.59375 36.460938 L 47.613281 36.480469 C 47.855469 36.695312 48.140625 36.800781 48.464844 36.800781 C 48.636719 36.800781 48.804688 36.769531 48.960938 36.703125 C 49.121094 36.636719 49.257812 36.546875 49.378906 36.425781 C 49.5 36.300781 49.59375 36.164062 49.660156 36.003906 C 49.726562 35.847656 49.757812 35.679688 49.757812 35.511719 L 49.757812 19.996094 C 49.757812 19.828125 49.726562 19.660156 49.660156 19.503906 C 49.59375 19.34375 49.5 19.207031 49.378906 19.085938 C 49.257812 18.960938 49.121094 18.871094 48.960938 18.804688 C 48.804688 18.738281 48.636719 18.707031 48.464844 18.707031 Z M 48.464844 18.707031 " fill-opacity="1" fill-rule="nonzero"/></g><g fill="#ffffff" fill-opacity="1"><g transform="translate(59.412711, 36.04279)"><g><path d="M 2.578125 0.140625 C 2.222656 0.140625 1.929688 0.0195312 1.703125 -0.21875 C 1.472656 -0.457031 1.359375 -0.75 1.359375 -1.09375 C 1.359375 -1.238281 1.40625 -1.414062 1.5 -1.625 L 8.421875 -18 C 8.566406 -18.320312 8.769531 -18.585938 9.03125 -18.796875 C 9.300781 -19.003906 9.625 -19.109375 10 -19.109375 L 10.28125 -19.109375 C 10.65625 -19.109375 10.972656 -19.003906 11.234375 -18.796875 C 11.503906 -18.585938 11.710938 -18.320312 11.859375 -18 L 18.78125 -1.625 C 18.875 -1.414062 18.921875 -1.238281 18.921875 -1.09375 C 18.921875 -0.75 18.804688 -0.457031 18.578125 -0.21875 C 18.359375 0.0195312 18.066406 0.140625 17.703125 0.140625 C 17.441406 0.140625 17.207031 0.0703125 17 -0.0625 C 16.789062 -0.195312 16.632812 -0.382812 16.53125 -0.625 L 14.765625 -4.859375 L 5.515625 -4.859375 L 3.75 -0.625 C 3.644531 -0.382812 3.488281 -0.195312 3.28125 -0.0625 C 3.070312 0.0703125 2.835938 0.140625 2.578125 0.140625 Z M 6.46875 -7.125 L 13.8125 -7.125 L 10.140625 -15.953125 Z M 6.46875 -7.125 "/></g></g></g><g fill="#ffffff" fill-opacity="1"><g transform="translate(79.691769, 36.04279)"><g><path d="M 3.375 0.140625 C 3.03125 0.140625 2.738281 0.0195312 2.5 -0.21875 C 2.257812 -0.457031 2.140625 -0.75 2.140625 -1.09375 L 2.140625 -12.75 C 2.140625 -13.09375 2.257812 -13.382812 2.5 -13.625 C 2.738281 -13.875 3.03125 -14 3.375 -14 C 3.71875 -14 4.007812 -13.875 4.25 -13.625 C 4.5 -13.382812 4.625 -13.09375 4.625 -12.75 L 4.625 -11.640625 C 5.132812 -12.359375 5.742188 -12.953125 6.453125 -13.421875 C 7.171875 -13.898438 8.101562 -14.140625 9.25 -14.140625 C 10.257812 -14.140625 11.125 -13.863281 11.84375 -13.3125 C 12.570312 -12.769531 13.09375 -12.113281 13.40625 -11.34375 C 14.53125 -13.207031 16.195312 -14.140625 18.40625 -14.140625 C 19.414062 -14.140625 20.257812 -13.882812 20.9375 -13.375 C 21.625 -12.863281 22.128906 -12.207031 22.453125 -11.40625 C 22.785156 -10.613281 22.953125 -9.785156 22.953125 -8.921875 L 22.953125 -1.09375 C 22.953125 -0.75 22.828125 -0.457031 22.578125 -0.21875 C 22.335938 0.0195312 22.046875 0.140625 21.703125 0.140625 C 21.347656 0.140625 21.050781 0.0195312 20.8125 -0.21875 C 20.582031 -0.457031 20.46875 -0.75 20.46875 -1.09375 L 20.46875 -8.421875 C 20.46875 -9.609375 20.257812 -10.476562 19.84375 -11.03125 C 19.425781 -11.582031 18.710938 -11.859375 17.703125 -11.859375 C 16.773438 -11.859375 16.003906 -11.613281 15.390625 -11.125 C 14.785156 -10.644531 14.25 -10.019531 13.78125 -9.25 L 13.78125 -1.09375 C 13.78125 -0.75 13.65625 -0.457031 13.40625 -0.21875 C 13.164062 0.0195312 12.875 0.140625 12.53125 0.140625 C 12.1875 0.140625 11.894531 0.0195312 11.65625 -0.21875 C 11.425781 -0.457031 11.3125 -0.75 11.3125 -1.09375 L 11.3125 -8.421875 C 11.3125 -9.609375 11.101562 -10.476562 10.6875 -11.03125 C 10.269531 -11.582031 9.550781 -11.859375 8.53125 -11.859375 C 7.613281 -11.859375 6.847656 -11.613281 6.234375 -11.125 C 5.628906 -10.644531 5.09375 -10.019531 4.625 -9.25 L 4.625 -1.09375 C 4.625 -0.75 4.5 -0.457031 4.25 -0.21875 C 4.007812 0.0195312 3.71875 0.140625 3.375 0.140625 Z M 3.375 0.140625 "/></g></g></g><g fill="#ffffff" fill-opacity="1"><g transform="translate(104.646428, 36.04279)"><g><path d="M 8.34375 0.265625 C 6.132812 0.265625 4.410156 -0.359375 3.171875 -1.609375 C 1.929688 -2.867188 1.3125 -4.644531 1.3125 -6.9375 C 1.3125 -8.21875 1.546875 -9.398438 2.015625 -10.484375 C 2.484375 -11.578125 3.207031 -12.457031 4.1875 -13.125 C 5.164062 -13.800781 6.367188 -14.140625 7.796875 -14.140625 C 9.140625 -14.140625 10.300781 -13.828125 11.28125 -13.203125 C 12.257812 -12.578125 13.003906 -11.742188 13.515625 -10.703125 C 14.023438 -9.660156 14.28125 -8.519531 14.28125 -7.28125 C 14.28125 -6.9375 14.164062 -6.644531 13.9375 -6.40625 C 13.707031 -6.175781 13.398438 -6.0625 13.015625 -6.0625 L 3.8125 -6.0625 C 3.957031 -4.789062 4.425781 -3.800781 5.21875 -3.09375 C 6.019531 -2.394531 7.132812 -2.046875 8.5625 -2.046875 C 9.320312 -2.046875 9.988281 -2.113281 10.5625 -2.25 C 11.132812 -2.394531 11.691406 -2.601562 12.234375 -2.875 C 12.378906 -2.945312 12.539062 -2.984375 12.71875 -2.984375 C 13.007812 -2.984375 13.265625 -2.882812 13.484375 -2.6875 C 13.703125 -2.488281 13.8125 -2.238281 13.8125 -1.9375 C 13.8125 -1.53125 13.578125 -1.191406 13.109375 -0.921875 C 12.398438 -0.523438 11.703125 -0.226562 11.015625 -0.03125 C 10.328125 0.164062 9.4375 0.265625 8.34375 0.265625 Z M 11.828125 -8.078125 C 11.773438 -8.960938 11.539062 -9.703125 11.125 -10.296875 C 10.71875 -10.898438 10.21875 -11.34375 9.625 -11.625 C 9.03125 -11.90625 8.421875 -12.046875 7.796875 -12.046875 C 7.179688 -12.046875 6.570312 -11.90625 5.96875 -11.625 C 5.375 -11.34375 4.878906 -10.898438 4.484375 -10.296875 C 4.085938 -9.703125 3.863281 -8.960938 3.8125 -8.078125 Z M 11.828125 -8.078125 "/></g></g></g><g fill="#ffffff" fill-opacity="1"><g transform="translate(120.032417, 36.04279)"><g><path d="M 8.34375 0.265625 C 6.132812 0.265625 4.410156 -0.359375 3.171875 -1.609375 C 1.929688 -2.867188 1.3125 -4.644531 1.3125 -6.9375 C 1.3125 -8.21875 1.546875 -9.398438 2.015625 -10.484375 C 2.484375 -11.578125 3.207031 -12.457031 4.1875 -13.125 C 5.164062 -13.800781 6.367188 -14.140625 7.796875 -14.140625 C 9.140625 -14.140625 10.300781 -13.828125 11.28125 -13.203125 C 12.257812 -12.578125 13.003906 -11.742188 13.515625 -10.703125 C 14.023438 -9.660156 14.28125 -8.519531 14.28125 -7.28125 C 14.28125 -6.9375 14.164062 -6.644531 13.9375 -6.40625 C 13.707031 -6.175781 13.398438 -6.0625 13.015625 -6.0625 L 3.8125 -6.0625 C 3.957031 -4.789062 4.425781 -3.800781 5.21875 -3.09375 C 6.019531 -2.394531 7.132812 -2.046875 8.5625 -2.046875 C 9.320312 -2.046875 9.988281 -2.113281 10.5625 -2.25 C 11.132812 -2.394531 11.691406 -2.601562 12.234375 -2.875 C 12.378906 -2.945312 12.539062 -2.984375 12.71875 -2.984375 C 13.007812 -2.984375 13.265625 -2.882812 13.484375 -2.6875 C 13.703125 -2.488281 13.8125 -2.238281 13.8125 -1.9375 C 13.8125 -1.53125 13.578125 -1.191406 13.109375 -0.921875 C 12.398438 -0.523438 11.703125 -0.226562 11.015625 -0.03125 C 10.328125 0.164062 9.4375 0.265625 8.34375 0.265625 Z M 11.828125 -8.078125 C 11.773438 -8.960938 11.539062 -9.703125 11.125 -10.296875 C 10.71875 -10.898438 10.21875 -11.34375 9.625 -11.625 C 9.03125 -11.90625 8.421875 -12.046875 7.796875 -12.046875 C 7.179688 -12.046875 6.570312 -11.90625 5.96875 -11.625 C 5.375 -11.34375 4.878906 -10.898438 4.484375 -10.296875 C 4.085938 -9.703125 3.863281 -8.960938 3.8125 -8.078125 Z M 11.828125 -8.078125 "/></g></g></g><g fill="#ffffff" fill-opacity="1"><g transform="translate(135.418405, 36.04279)"><g><path d="M 6.9375 0.265625 C 4.289062 0.265625 2.96875 -0.925781 2.96875 -3.3125 L 2.96875 -11.75 L 1.03125 -11.75 C 0.882812 -11.75 0.757812 -11.796875 0.65625 -11.890625 C 0.5625 -11.992188 0.515625 -12.117188 0.515625 -12.265625 C 0.515625 -12.441406 0.597656 -12.59375 0.765625 -12.71875 L 4.453125 -16.34375 C 4.617188 -16.5 4.773438 -16.578125 4.921875 -16.578125 C 5.066406 -16.578125 5.1875 -16.523438 5.28125 -16.421875 C 5.382812 -16.316406 5.4375 -16.191406 5.4375 -16.046875 L 5.4375 -13.859375 L 8.515625 -13.859375 C 8.816406 -13.859375 9.066406 -13.757812 9.265625 -13.5625 C 9.460938 -13.363281 9.5625 -13.113281 9.5625 -12.8125 C 9.5625 -12.519531 9.460938 -12.269531 9.265625 -12.0625 C 9.066406 -11.851562 8.816406 -11.75 8.515625 -11.75 L 5.4375 -11.75 L 5.4375 -3.53125 C 5.4375 -2.820312 5.601562 -2.375 5.9375 -2.1875 C 6.269531 -2 6.691406 -1.90625 7.203125 -1.90625 C 7.566406 -1.90625 7.929688 -1.957031 8.296875 -2.0625 C 8.367188 -2.082031 8.441406 -2.097656 8.515625 -2.109375 C 8.597656 -2.128906 8.707031 -2.140625 8.84375 -2.140625 C 9.09375 -2.140625 9.316406 -2.046875 9.515625 -1.859375 C 9.710938 -1.671875 9.8125 -1.441406 9.8125 -1.171875 C 9.8125 -0.753906 9.601562 -0.4375 9.1875 -0.21875 C 8.476562 0.101562 7.726562 0.265625 6.9375 0.265625 Z M 6.9375 0.265625 "/></g></g></g></svg>